<svg width="30" height="84" viewBox="0 0 30 84" fill="none" xmlns="http://www.w3.org/2000/svg">
<rect x="0.5" y="0.5" width="29" height="29" fill="black" stroke="#F4DA22"/>
<rect x="0.5" y="42.5" width="29" height="29" fill="black" stroke="#F4DA22"/>
<path d="M11 18.2538V10.8198C11 10.3943 11.2907 10.0508 11.6508 10.0508C12.0108 10.0508 12.3015 10.3943 12.3015 10.8198V13.6396H12.7353V9.28173C12.7353 8.85619 13.026 8.51269 13.386 8.51269C13.7461 8.51269 14.0367 8.85619 14.0367 9.28173V13.6396H14.4706V8.76904C14.4706 8.3435 14.7612 8 15.1213 8C15.4813 8 15.772 8.3435 15.772 8.76904V13.6396H16.2058V10.0508C16.2058 9.62523 16.4965 9.28173 16.8565 9.28173C17.2166 9.28173 17.5073 9.62523 17.5073 10.0508V16.1569C17.5073 16.1569 19.3596 14.9008 19.377 14.8957C19.377 14.8957 19.7158 14.6686 19.9918 14.7202C20.2678 14.7717 20.4651 15.0988 20.4651 15.0988C20.4651 15.0988 20.5583 15.2701 20.544 15.6032C20.5045 16.5185 17.1385 19.6945 17.1385 19.6945C16.8131 20.0841 16.3707 20.3046 15.9021 20.3046H12.7353C11.7809 20.3046 11 19.3817 11 18.2538Z" fill="#EE702E"/>
<rect x="12" y="30" width="6" height="12" fill="#C4C4C4"/>
<rect x="12" y="72" width="6" height="12" fill="#C4C4C4"/>
</svg>
